<?xml version="1.0" encoding="UTF-8"?>
<svg version="1.1" xmlns="http://www.w3.org/2000/svg" width="500" height="500">
<path d="M0 0 C1.64176774 3.28353549 1.18454039 6.89519638 1.1875 10.5 C1.19974609 11.28503906 1.21199219 12.07007813 1.22460938 12.87890625 C1.22986254 14.92063726 1.1222018 16.96192251 1 19 C-1.82574196 21.82574196 -3.69288843 21.27626762 -7.65283203 21.31884766 C-8.67739502 21.33391609 -8.67739502 21.33391609 -9.72265625 21.34928894 C-11.98436629 21.3802237 -14.24595744 21.39718423 -16.5078125 21.4140625 C-18.07438182 21.43276592 -19.64094099 21.4523387 -21.20748901 21.4727478 C-25.33382183 21.52416252 -29.46018734 21.56373803 -33.58666992 21.60089111 C-38.53604365 21.64789993 -43.48525398 21.70953758 -48.43449402 21.76873779 C-55.95626373 21.85706389 -63.47800032 21.92674629 -71 22 C-71 40.48 -71 58.96 -71 78 C-65.97007812 77.97679687 -60.94015625 77.95359375 -55.7578125 77.9296875 C-52.57681778 77.91947197 -49.3958432 77.9098443 -46.21484375 77.90234375 C-41.16255509 77.89037454 -36.11033871 77.87619447 -31.05810547 77.84912109 C-26.98622723 77.82743697 -22.91442647 77.81544077 -18.84249496 77.81024551 C-17.28670913 77.80654176 -15.73092768 77.79930954 -14.17517471 77.78853989 C-12.00096626 77.77408362 -9.82708058 77.77201956 -7.65283203 77.77294922 C-6.41373077 77.768508 -5.17462952 77.76406677 -3.89797974 77.75949097 C-1 78 -1 78 1 80 C1.44293542 82.97967576 1.32414428 85.99111866 1.3125 89 C1.32861328 89.83273437 1.34472656 90.66546875 1.36132812 91.5234375 C1.36197266 92.32007813 1.36261719 93.11671875 1.36328125 93.9375 C1.36626221 94.66839844 1.36924316 95.39929688 1.37231445 96.15234375 C1 98 1 98 -2 100 C-4.78804016 100.25396729 -4.78804016 100.25396729 -8.2121582 100.25878906 C-9.49391434 100.26509338 -10.77567047 100.27139771 -12.0962677 100.27789307 C-13.49777361 100.27431213 -14.89927827 100.27020989 -16.30078125 100.265625 C-17.7394365 100.26697264 -19.1780913 100.26891399 -20.616745 100.27142334 C-23.63378225 100.2743728 -26.65070112 100.27008464 -29.66772461 100.26074219 C-33.52451476 100.24937839 -37.38102559 100.25588855 -41.23780537 100.26788712 C-44.21046527 100.27513684 -47.18305972 100.27280301 -50.15572166 100.26763153 C-51.57700827 100.26630203 -52.99830091 100.26791812 -54.41958046 100.27259064 C-56.41293846 100.27770338 -58.40631741 100.26852151 -60.3996582 100.25878906 C-62.0981768 100.25640228 -62.0981768 100.25640228 -63.83100891 100.25396729 C-67.23780277 99.98094216 -69.88441058 99.41058198 -73 98 C-74.375 94.375 -74.375 94.375 -75 91 C-75.63808594 90.86722656 -76.27617187 90.73445313 -76.93359375 90.59765625 C-77.75988281 90.42105469 -78.58617187 90.24445313 -79.4375 90.0625 C-80.26121094 89.88847656 -81.08492187 89.71445312 -81.93359375 89.53515625 C-84 89 -84 89 -85 88 C-85.36760731 85.67182036 -85.70241581 83.3381615 -86 81 C-86.62648437 80.93941406 -87.25296875 80.87882812 -87.8984375 80.81640625 C-89.12433594 80.69072266 -89.12433594 80.69072266 -90.375 80.5625 C-91.59316406 80.44068359 -91.59316406 80.44068359 -92.8359375 80.31640625 C-95 80 -95 80 -97 79 C-97.0462929 71.4723122 -97.08185365 63.94463912 -97.10362434 56.41684151 C-97.11407198 52.92156073 -97.12824883 49.42637717 -97.15087891 45.93115234 C-97.17671953 41.91502944 -97.18646466 37.89900903 -97.1953125 33.8828125 C-97.20563507 32.62445587 -97.21595764 31.36609924 -97.22659302 30.0696106 C-97.22674408 28.90855804 -97.22689514 27.74750549 -97.22705078 26.55126953 C-97.231492 25.52534698 -97.23593323 24.49942444 -97.24050903 23.44241333 C-97 21 -97 21 -95 19 C-92.8359375 18.5859375 -92.8359375 18.5859375 -90.375 18.375 C-89.55773437 18.30023438 -88.74046875 18.22546875 -87.8984375 18.1484375 C-87.27195313 18.09945312 -86.64546875 18.05046875 -86 18 C-85.896875 16.88625 -85.79375 15.7725 -85.6875 14.625 C-85.460625 13.42875 -85.23375 12.2325 -85 11 C-82.09907498 9.06604999 -81.10325263 8.69868059 -77.8125 8.375 C-76.554375 8.25125 -75.29625 8.1275 -74 8 C-73.855625 6.865625 -73.71125 5.73125 -73.5625 4.5625 C-73 1 -73 1 -72 0 C-69.94120309 -0.12911375 -67.87801298 -0.18855347 -65.81542969 -0.22119141 C-65.1698259 -0.2326973 -64.52422211 -0.24420319 -63.85905457 -0.25605774 C-61.71337721 -0.29289511 -59.56767023 -0.3224583 -57.421875 -0.3515625 C-55.93312151 -0.3746733 -54.44437233 -0.39806359 -52.95562744 -0.42172241 C-49.82836674 -0.47025828 -46.70107954 -0.51516893 -43.57373047 -0.55761719 C-39.57101886 -0.61226552 -35.56851785 -0.67613195 -31.56599045 -0.74279213 C-28.48792728 -0.79297348 -25.40980525 -0.83805535 -22.33164215 -0.88163376 C-20.85647405 -0.90316035 -19.38132859 -0.92630153 -17.90621185 -0.9510994 C-15.8382253 -0.98512838 -13.77025714 -1.01224196 -11.70214844 -1.03759766 C-9.93795563 -1.06305161 -9.93795563 -1.06305161 -8.13812256 -1.08901978 C-5.26380614 -1.00748344 -2.76004783 -0.80170348 0 0 Z " fill="#000000" transform="translate(270,204)"/>
<path d="M0 0 C2.14576637 -0.02685938 4.29162645 -0.04633088 6.4375 -0.0625 C7.63246094 -0.07410156 8.82742188 -0.08570313 10.05859375 -0.09765625 C13 0 13 0 14 1 C14.04080783 2.99958364 14.04254356 5.00045254 14 7 C19.445 7.495 19.445 7.495 25 8 C25.99 11.465 25.99 11.465 27 15 C30.63 15.33 34.26 15.66 38 16 C38.99 19.465 38.99 19.465 40 23 C40.69867188 22.96519531 41.39734375 22.93039062 42.1171875 22.89453125 C43.02726562 22.86746094 43.93734375 22.84039062 44.875 22.8125 C45.77992188 22.77769531 46.68484375 22.74289062 47.6171875 22.70703125 C48.79667969 22.85205078 48.79667969 22.85205078 50 23 C52.26954631 26.40431947 52.36549949 28.16524202 52.625 32.1875 C52.69976562 33.27417969 52.77453125 34.36085938 52.8515625 35.48046875 C52.90054688 36.31191406 52.94953125 37.14335937 53 38 C52.34 38 51.68 38 51 38 C51 38.66 51 39.32 51 40 C46.71 40 42.42 40 38 40 C37.505 36.535 37.505 36.535 37 33 C33.04 32.67 29.08 32.34 25 32 C25 29.69 25 27.38 25 25 C24.22914063 25.02320313 23.45828125 25.04640625 22.6640625 25.0703125 C21.66117187 25.08835937 20.65828125 25.10640625 19.625 25.125 C18.62726563 25.14820313 17.62953125 25.17140625 16.6015625 25.1953125 C14 25 14 25 12 23 C11.875 19.875 11.875 19.875 12 17 C8.37 17 4.74 17 1 17 C1.04125 17.94875 1.0825 18.8975 1.125 19.875 C1 23 1 23 -1 25 C-3.3828125 25.1953125 -3.3828125 25.1953125 -6.125 25.125 C-7.03507812 25.10695313 -7.94515625 25.08890625 -8.8828125 25.0703125 C-9.58148438 25.04710937 -10.28015625 25.02390625 -11 25 C-11.66 27.31 -12.32 29.62 -13 32 C-18.94 32.495 -18.94 32.495 -25 33 C-25 34.98 -25 36.96 -25 39 C-26 40 -26 40 -28.6875 40.1328125 C-29.780625 40.13023437 -30.87375 40.12765625 -32 40.125 C-33.093125 40.12757813 -34.18625 40.13015625 -35.3125 40.1328125 C-38 40 -38 40 -39 39 C-39.09932392 36.68925832 -39.12969618 34.37537058 -39.125 32.0625 C-39.12757813 30.79535156 -39.13015625 29.52820313 -39.1328125 28.22265625 C-39 25 -39 25 -38 23 C-36.9275 23.020625 -35.855 23.04125 -34.75 23.0625 C-31.85209576 23.0142016 -29.71387859 22.86844115 -27 22 C-26.01 18.535 -26.01 18.535 -25 15 C-21.37 15 -17.74 15 -14 15 C-13.34 12.69 -12.68 10.38 -12 8 C-8.7 7.67 -5.4 7.34 -2 7 C-1.34 4.69 -0.68 2.38 0 0 Z " fill="#010101" transform="translate(317,260)"/>
<path d="" fill="#FFFFFF" transform="translate(0,0)"/>
<path d="" fill="#FFFFFF" transform="translate(0,0)"/>
<path d="" fill="#FFFFFF" transform="translate(0,0)"/>
<path d="" fill="#FFFFFF" transform="translate(0,0)"/>
<path d="" fill="#FFFFFF" transform="translate(0,0)"/>
<path d="" fill="#FFFFFF" transform="translate(0,0)"/>
<path d="" fill="#FFFFFF" transform="translate(0,0)"/>
<path d="" fill="#FFFFFF" transform="translate(0,0)"/>
<path d="" fill="#FFFFFF" transform="translate(0,0)"/>
<path d="" fill="#FFFFFF" transform="translate(0,0)"/>
<path d="" fill="#FFFFFF" transform="translate(0,0)"/>
<path d="" fill="#FFFFFF" transform="translate(0,0)"/>
<path d="" fill="#FFFFFF" transform="translate(0,0)"/>
<path d="" fill="#FFFFFF" transform="translate(0,0)"/>
<path d="" fill="#FFFFFF" transform="translate(0,0)"/>
<path d="" fill="#FFFFFF" transform="translate(0,0)"/>
<path d="" fill="#FFFFFF" transform="translate(0,0)"/>
<path d="" fill="#FFFFFF" transform="translate(0,0)"/>
<path d="" fill="#FFFFFF" transform="translate(0,0)"/>
<path d="" fill="#FFFFFF" transform="translate(0,0)"/>
<path d="" fill="#FFFFFF" transform="translate(0,0)"/>
<path d="" fill="#FFFFFF" transform="translate(0,0)"/>
<path d="" fill="#FFFFFF" transform="translate(0,0)"/>
<path d="" fill="#FFFFFF" transform="translate(0,0)"/>
<path d="" fill="#FFFFFF" transform="translate(0,0)"/>
<path d="" fill="#FFFFFF" transform="translate(0,0)"/>
<path d="" fill="#FFFFFF" transform="translate(0,0)"/>
<path d="" fill="#FFFFFF" transform="translate(0,0)"/>
<path d="" fill="#FFFFFF" transform="translate(0,0)"/>
<path d="" fill="#FFFFFF" transform="translate(0,0)"/>
<path d="" fill="#FFFFFF" transform="translate(0,0)"/>
<path d="" fill="#FFFFFF" transform="translate(0,0)"/>
<path d="" fill="#FFFFFF" transform="translate(0,0)"/>
<path d="" fill="#FFFFFF" transform="translate(0,0)"/>
<path d="" fill="#FFFFFF" transform="translate(0,0)"/>
<path d="" fill="#FFFFFF" transform="translate(0,0)"/>
<path d="" fill="#FFFFFF" transform="translate(0,0)"/>
<path d="" fill="#FFFFFF" transform="translate(0,0)"/>
<path d="" fill="#FFFFFF" transform="translate(0,0)"/>
<path d="" fill="#FFFFFF" transform="translate(0,0)"/>
<path d="" fill="#FFFFFF" transform="translate(0,0)"/>
<path d="" fill="#FFFFFF" transform="translate(0,0)"/>
<path d="" fill="#FFFFFF" transform="translate(0,0)"/>
<path d="" fill="#FFFFFF" transform="translate(0,0)"/>
<path d="" fill="#FFFFFF" transform="translate(0,0)"/>
<path d="" fill="#FFFFFF" transform="translate(0,0)"/>
<path d="" fill="#FFFFFF" transform="translate(0,0)"/>
<path d="" fill="#FFFFFF" transform="translate(0,0)"/>
<path d="" fill="#FFFFFF" transform="translate(0,0)"/>
<path d="" fill="#FFFFFF" transform="translate(0,0)"/>
<path d="" fill="#FFFFFF" transform="translate(0,0)"/>
<path d="" fill="#FFFFFF" transform="translate(0,0)"/>
<path d="" fill="#FFFFFF" transform="translate(0,0)"/>
<path d="" fill="#FFFFFF" transform="translate(0,0)"/>
<path d="" fill="#FFFFFF" transform="translate(0,0)"/>
<path d="" fill="#FFFFFF" transform="translate(0,0)"/>
<path d="" fill="#FFFFFF" transform="translate(0,0)"/>
<path d="" fill="#FFFFFF" transform="translate(0,0)"/>
<path d="" fill="#FFFFFF" transform="translate(0,0)"/>
<path d="" fill="#FFFFFF" transform="translate(0,0)"/>
<path d="" fill="#FFFFFF" transform="translate(0,0)"/>
<path d="" fill="#FFFEFF" transform="translate(0,0)"/>
<path d="" fill="#FFFFFF" transform="translate(0,0)"/>
<path d="" fill="#FFFFFF" transform="translate(0,0)"/>
<path d="" fill="#FFFFFF" transform="translate(0,0)"/>
<path d="" fill="#FFFFFF" transform="translate(0,0)"/>
<path d="" fill="#FFFFFF" transform="translate(0,0)"/>
<path d="" fill="#FFFFFF" transform="translate(0,0)"/>
<path d="" fill="#FFFFFF" transform="translate(0,0)"/>
<path d="" fill="#FFFFFF" transform="translate(0,0)"/>
<path d="" fill="#FFFFFF" transform="translate(0,0)"/>
<path d="" fill="#FFFFFF" transform="translate(0,0)"/>
<path d="" fill="#FFFFFF" transform="translate(0,0)"/>
<path d="" fill="#FFFFFF" transform="translate(0,0)"/>
</svg>
